<svg width="93" height="93" viewBox="0 0 93 93" fill="none" xmlns="http://www.w3.org/2000/svg">
<rect width="93" height="93" fill="#FCF9E8"/>
<path d="M53.4955 68.0063C47.0523 65.6103 40.425 65.2417 34.35 66.9005C30.116 68.0063 26.066 70.218 22.3841 72.9827L19.8068 75.1944L19.0705 75.9316L20.7273 77.4061C20.9114 77.4061 20.9114 77.5904 21.0955 77.7747C21.4637 78.1433 21.8319 78.3276 22.3841 78.6963L23.4886 79.4335L24.5932 78.5119C24.7773 78.3276 25.1455 77.959 25.5136 77.7747C28.8273 75.0101 32.5091 73.167 36.375 72.2454C41.3455 70.9553 46.6841 71.1396 52.0227 73.167C56.4409 74.8258 65.4614 76.8532 76.3228 72.2454L76.691 72.0611L77.2432 71.5082C77.2432 71.3239 77.4273 71.3239 77.6114 71.1396C78.5319 70.0337 79.4523 68.9279 80.1887 67.6377L83.8705 61.9241L77.9796 65.2417C69.3273 70.0337 61.4114 70.9552 53.4955 68.0063Z" fill="#201B21"/>
<path d="M28.275 48.1009C33.2455 46.8108 38.5841 46.9951 43.9227 49.0225C49.8137 51.2342 64.9091 54.3675 81.8455 39.0698L84.6068 36.3052L84.791 36.1208L85.5273 35.3836L85.1591 34.4621C84.975 33.7248 84.6068 32.8033 84.2386 31.8817L83.3182 29.3014L81.4773 31.1445C81.2932 31.5131 80.925 31.6974 80.5568 32.066C72.4568 40.3599 59.9386 48.8382 45.5796 43.6775C39.1364 41.2815 32.5091 40.9129 26.4341 42.5717C20.5432 44.2304 15.3886 47.3637 10.6023 51.7871V51.6028L7.84091 54.5517C7.84091 54.7361 7.65685 54.7361 7.47276 54.9204L6.92046 55.4733L7.10456 56.2105C7.28865 57.1321 7.65682 58.0536 7.84091 58.9752L8.94547 61.9241L10.7864 59.5281C10.9705 59.1595 11.3386 58.9752 11.5227 58.6066C15.3886 55.1047 20.7273 50.1283 28.275 48.1009Z" fill="#201B21"/>
<path d="M10.4182 44.7834C14.6523 40.36 19.4386 37.5953 24.5932 36.1208C29.5636 34.8307 34.9023 35.015 40.2409 37.0424C56.8091 43.1246 71.1682 33.1719 77.4273 27.8269L79.8205 25.4309L80.7409 24.6936L80.0046 23.5878C79.4523 23.0349 79.0841 22.2977 78.5319 21.5604L77.4273 20.0859L76.1386 21.3761C75.9546 21.5604 75.5864 21.929 75.4023 22.1133C67.6705 29.4857 55.7046 37.0424 42.0818 31.8817C35.6386 29.4857 29.0114 29.1171 22.9364 30.7759C19.0705 31.8817 15.3886 33.7248 11.7068 36.1208L7.84091 39.2541C7.47273 39.6227 7.28864 39.807 6.92045 40.1757L6.55231 40.5442V41.0972C6.36822 42.3874 6.36819 43.6775 6.1841 44.7834L6 49.3911L9.12957 46.0735C9.49775 45.7049 9.86595 45.152 10.4182 44.7834Z" fill="#201B21"/>
<path d="M58.8341 80.5394L58.4659 81.6452L58.8341 80.5394C58.2818 80.355 57.9137 80.1707 57.3614 79.9864C50.9182 77.5904 44.2909 77.2218 38.2159 78.8806C36.9273 79.2492 35.6387 79.6178 34.35 80.1707L29.9318 82.1981L28.8273 82.751L32.5091 84.0412C33.6137 84.4098 34.7182 84.7785 35.8227 85.1471L36.375 85.3314L36.9273 85.1471C37.4796 84.9628 38.0318 84.5941 38.5841 84.5941C38.9523 84.5941 39.3205 84.4098 39.6887 84.2255C44.1068 83.1197 48.8932 83.1197 54.0477 84.7784C54.6 84.9628 54.9682 85.1471 55.5205 85.3314L56.441 85.7L56.9932 85.5157C58.2818 85.1471 59.7546 84.7785 60.8591 84.2255L66.0136 82.3824L60.675 81.0923C60.1227 80.908 59.3864 80.7237 58.8341 80.5394Z" fill="#201B21"/>
<path d="M87 42.3873L84.2386 45.152C83.8705 45.5206 83.5023 45.8892 83.1341 46.2578C75.5864 53.4459 63.4364 61.1868 49.8137 56.0262C43.3705 53.6302 36.7432 53.2616 30.6682 54.9204C24.9614 56.5792 19.8068 59.5281 15.2045 63.9515L12.8114 66.5318L12.075 67.4534L12.8114 68.5592C13.3637 69.2965 13.7319 69.8494 14.1 70.5867L15.2045 72.2454L16.4932 70.5867C16.6773 70.4023 17.0455 70.0337 17.2296 69.8494C21.6477 65.0573 26.4341 62.1084 31.9568 60.6339C36.9273 59.3438 42.2659 59.5281 47.6046 61.5555C52.2068 63.2142 56.9932 63.7672 61.7796 63.2143C70.2478 62.2927 78.716 57.5007 84.975 52.1557C85.3432 51.7871 85.7114 51.6028 86.0795 51.2342L86.6318 50.6812V50.1283C86.6318 49.0225 86.816 47.7323 86.816 46.6265L87 42.3873Z" fill="#201B21"/>
<path d="M17.0455 25.4309L16.4932 24.3251L17.0455 25.4309C18.15 24.878 19.4387 24.5093 20.5432 24.1407C25.5137 22.8506 30.8523 23.0349 36.191 25.0623C39.6887 26.3524 43.1864 26.9054 47.0523 26.9054C54.7841 26.9054 62.5159 24.1407 69.6955 18.7958L72.4568 16.584L73.3773 15.8468L71.7205 14.5566C71.1682 14.0037 70.4318 13.4508 69.6955 13.0822L68.5909 12.345L67.6705 13.0822C67.3023 13.2665 67.1182 13.6351 66.75 13.8194C56.9932 21.1918 47.2364 23.2192 38.0319 19.7173C31.4046 17.3213 24.7773 16.7684 18.15 18.7958C17.5977 18.9801 17.0455 19.1644 16.3091 19.3487L15.941 19.533L15.3886 20.0859C15.3886 20.2702 15.2046 20.2702 15.0205 20.4545C14.2841 21.5604 13.3636 22.482 12.6273 23.5878L9.12957 28.9328L14.8364 25.9838C15.7569 25.9838 16.4932 25.6152 17.0455 25.4309Z" fill="#201B21"/>
<path d="M32.1409 12.8979L32.6932 13.0822C35.0864 14.0037 38.7682 14.9253 43.3705 14.9253C48.1569 14.9253 52.7591 13.8194 57.3614 11.9763L63.0682 9.21168L59.2023 7.92155C58.0978 7.55293 56.9932 7.18431 55.7045 7H55.1523L54.6 7.18426C54.0478 7.36857 53.4955 7.73724 52.9432 7.92155C47.4205 9.94895 41.8977 10.3176 36.5591 8.84309C36.0068 8.65878 35.4546 8.47444 34.9023 8.29013L34.35 8.10581L33.7977 8.29013C32.6932 8.65875 31.5887 9.02739 30.4841 9.58032L26.25 11.4234L30.6682 12.7135C31.0364 12.5292 31.5887 12.7136 32.1409 12.8979Z" fill="#201B21"/>
</svg>
